<mxfile host="app.diagrams.net" modified="2022-07-29T03:38:12.096Z" agent="5.0 (Windows NT 10.0; Win64; x64) AppleWebKit/537.36 (KHTML, like Gecko) Chrome/103.0.0.0 Safari/537.36" etag="pIutZ0RmpBZejZLa0rMS" version="20.2.2" type="github">
  <diagram id="hxqJ5TlV3rE8uzdW1_4F" name="第 1 页">
    <mxGraphModel dx="1038" dy="547" grid="1" gridSize="10" guides="1" tooltips="1" connect="1" arrows="1" fold="1" page="1" pageScale="1" pageWidth="827" pageHeight="1169" math="0" shadow="0">
      <root>
        <mxCell id="0" />
        <mxCell id="1" parent="0" />
        <mxCell id="KvyKXlRI4VS_v70gzZ7n-5" style="edgeStyle=orthogonalEdgeStyle;rounded=0;orthogonalLoop=1;jettySize=auto;html=1;" edge="1" parent="1" source="KvyKXlRI4VS_v70gzZ7n-2" target="KvyKXlRI4VS_v70gzZ7n-4">
          <mxGeometry relative="1" as="geometry" />
        </mxCell>
        <mxCell id="KvyKXlRI4VS_v70gzZ7n-2" value="" style="aspect=fixed;html=1;points=[];align=center;image;fontSize=12;image=img/lib/azure2/ai_machine_learning/Cognitive_Services.svg;" vertex="1" parent="1">
          <mxGeometry x="310" y="360" width="68" height="48" as="geometry" />
        </mxCell>
        <mxCell id="KvyKXlRI4VS_v70gzZ7n-8" style="edgeStyle=orthogonalEdgeStyle;rounded=0;orthogonalLoop=1;jettySize=auto;html=1;" edge="1" parent="1" source="KvyKXlRI4VS_v70gzZ7n-4" target="KvyKXlRI4VS_v70gzZ7n-7">
          <mxGeometry relative="1" as="geometry">
            <Array as="points">
              <mxPoint x="360" y="550" />
              <mxPoint x="360" y="550" />
            </Array>
          </mxGeometry>
        </mxCell>
        <mxCell id="KvyKXlRI4VS_v70gzZ7n-4" value="" style="sketch=0;outlineConnect=0;fontColor=#232F3E;gradientColor=none;fillColor=#3399FF;strokeColor=none;dashed=0;verticalLabelPosition=bottom;verticalAlign=top;align=center;html=1;fontSize=12;fontStyle=0;aspect=fixed;pointerEvents=1;shape=mxgraph.aws4.iot_thing_industrial_pc;" vertex="1" parent="1">
          <mxGeometry x="200" y="510" width="60" height="60" as="geometry" />
        </mxCell>
        <mxCell id="KvyKXlRI4VS_v70gzZ7n-9" style="edgeStyle=orthogonalEdgeStyle;rounded=0;orthogonalLoop=1;jettySize=auto;html=1;" edge="1" parent="1" source="KvyKXlRI4VS_v70gzZ7n-7" target="KvyKXlRI4VS_v70gzZ7n-2">
          <mxGeometry relative="1" as="geometry">
            <Array as="points">
              <mxPoint x="451" y="384" />
            </Array>
          </mxGeometry>
        </mxCell>
        <mxCell id="KvyKXlRI4VS_v70gzZ7n-10" style="edgeStyle=orthogonalEdgeStyle;rounded=0;orthogonalLoop=1;jettySize=auto;html=1;" edge="1" parent="1" source="KvyKXlRI4VS_v70gzZ7n-7" target="KvyKXlRI4VS_v70gzZ7n-4">
          <mxGeometry relative="1" as="geometry" />
        </mxCell>
        <mxCell id="KvyKXlRI4VS_v70gzZ7n-14" style="edgeStyle=orthogonalEdgeStyle;rounded=0;orthogonalLoop=1;jettySize=auto;html=1;" edge="1" parent="1" source="KvyKXlRI4VS_v70gzZ7n-7">
          <mxGeometry relative="1" as="geometry">
            <mxPoint x="570" y="540" as="targetPoint" />
          </mxGeometry>
        </mxCell>
        <mxCell id="KvyKXlRI4VS_v70gzZ7n-7" value="" style="sketch=0;outlineConnect=0;fontColor=#232F3E;gradientColor=none;fillColor=#3399FF;strokeColor=none;dashed=0;verticalLabelPosition=bottom;verticalAlign=top;align=center;html=1;fontSize=12;fontStyle=0;aspect=fixed;pointerEvents=1;shape=mxgraph.aws4.internet;" vertex="1" parent="1">
          <mxGeometry x="410" y="515" width="81.25" height="50" as="geometry" />
        </mxCell>
        <mxCell id="KvyKXlRI4VS_v70gzZ7n-13" value="" style="aspect=fixed;html=1;points=[];align=center;image;fontSize=12;image=img/lib/azure2/general/Workflow.svg;fillColor=#3399FF;" vertex="1" parent="1">
          <mxGeometry x="580" y="510" width="63.14" height="65" as="geometry" />
        </mxCell>
      </root>
    </mxGraphModel>
  </diagram>
</mxfile>
